# xmcd
#
# Track frame offsets: 
#        150
#        1964
#        27535
#        42423
#        54558
#        71763
#        83522
#        96442
#        130495
#        149795
#        172887
#        199294
#        233132
#        258448
#        287327
#
# Disc length: 4117 seconds
#
# Revision: 0
# Processed by: cddbd v1.5.2PL0 Copyright (c) Steve Scherf et al.
# Submitted via: ExactAudioCopyFreeDBPlugin 1.0
#
DISCID=db10130f
DTITLE=Various Artist - The Beat Goes On ~ Salsoul Classics Mixed By 
DTITLE=Towa Tei
DYEAR=2012
DGENRE=Soul
TTITLE0=Instant Funk - I Got My Mind Made Up (Original Larry Levan 12i
TTITLE0=nch Mix)
TTITLE1=The Salsoul Orchestra - Ooh I Love It (Love Break) (Original S
TTITLE1=hep Pettibone 12inch Remix)
TTITLE2=First Choice - Love Thang (Tee Scott 12inch Remix)
TTITLE3=Inner Life - I Like It Like That (Original Shep Pettibone 12in
TTITLE3=ch Mix)
TTITLE4=Ripple - The Beat Goes On And On (Jim Burgess 12inch Mix)
TTITLE5=Skyy - Let's Celebrate
TTITLE6=Loleatta Holloway - Love Sensation
TTITLE7=First Choice - Let No Man Put Asunder (Original Shep Pettibone
TTITLE7=12inch Mix)
TTITLE8=Silvetti - Spring Rain
TTITLE9=The Salsoul Orchestra - Take Some Time Out (For Love) (Origina
TTITLE9=l 12inch Mix)
TTITLE10=Inner Life - Make It Last Forever (Unreleased Larry Levan Rem
TTITLE10=ix)
TTITLE11=First Choice - Doctor Love (Original Tom Moulton 12inch Mix)
TTITLE12=Loleatta Holloway - Hit 'n Run (Original Paul Simpson Special
TTITLE12=R.E.M.I.X.E.D. Version)
TTITLE13=Double Exposure - Ten Percent (Original Walter Gibbons 12inch
TTITLE13=Mix)
TTITLE14=The Salsoul Orchestra featuring Loleatta Holloway - Runaway
EXTD=
EXTT0=
EXTT1=
EXTT2=
EXTT3=
EXTT4=
EXTT5=
EXTT6=
EXTT7=
EXTT8=
EXTT9=
EXTT10=
EXTT11=
EXTT12=
EXTT13=
EXTT14=
PLAYORDER=
